<svg width="40" height="40" fill="none" xmlns="http://www.w3.org/2000/svg"><path fill-rule="evenodd" clip-rule="evenodd" d="M19.947 39.51c11.016 0 19.947-8.844 19.947-19.755C39.894 8.845 30.964 0 19.947 0S0 8.845 0 19.755c0 10.91 8.93 19.756 19.947 19.756z" fill="#F5F6FA" fill-opacity=".01"/><mask id="mask0_2_25" style="mask-type:alpha" maskUnits="userSpaceOnUse" x="0" y="0" width="40" height="40"><path fill-rule="evenodd" clip-rule="evenodd" d="M19.947 39.51c11.016 0 19.947-8.844 19.947-19.755C39.894 8.845 30.964 0 19.947 0S0 8.845 0 19.755c0 10.91 8.93 19.756 19.947 19.756z" fill="#fff"/></mask><path d="M31.17 13.861a8.295 8.295 0 01-2.386.655 4.172 4.172 0 001.827-2.297 8.376 8.376 0 01-2.64 1.008 4.155 4.155 0 00-7.08 3.788 11.797 11.797 0 01-8.565-4.34 4.123 4.123 0 00-.562 2.088c0 1.441.734 2.714 1.848 3.458a4.156 4.156 0 01-1.882-.522v.052a4.16 4.16 0 003.332 4.075 4.21 4.21 0 01-1.094.145c-.269 0-.528-.027-.783-.077a4.157 4.157 0 003.881 2.886 8.337 8.337 0 01-5.16 1.775c-.336 0-.666-.02-.991-.056a11.746 11.746 0 006.369 1.869c7.644 0 11.822-6.331 11.822-11.822l-.014-.538a8.296 8.296 0 002.078-2.146z" fill="#010002"/><mask id="mask1_2_25" style="mask-type:alpha" maskUnits="userSpaceOnUse" x="10" y="11" width="22" height="18"><path d="M31.17 13.861a8.295 8.295 0 01-2.386.655 4.172 4.172 0 001.827-2.297 8.376 8.376 0 01-2.64 1.008 4.155 4.155 0 00-7.08 3.788 11.797 11.797 0 01-8.565-4.34 4.123 4.123 0 00-.562 2.088c0 1.441.734 2.714 1.848 3.458a4.156 4.156 0 01-1.882-.522v.052a4.16 4.16 0 003.332 4.075 4.21 4.21 0 01-1.094.145c-.269 0-.528-.027-.783-.077a4.157 4.157 0 003.881 2.886 8.337 8.337 0 01-5.16 1.775c-.336 0-.666-.02-.991-.056a11.746 11.746 0 006.369 1.869c7.644 0 11.822-6.331 11.822-11.822l-.014-.538a8.296 8.296 0 002.078-2.146z" fill="#fff"/></mask><g mask="url(#mask1_2_25)"><path fill="#fff" d="M7.34 7.149h26.213v26.213H7.34z"/></g></svg>